<?xml version="1.0" encoding="utf-8"?>
<!-- Generator: Adobe Illustrator 19.2.1, SVG Export Plug-In . SVG Version: 6.00 Build 0)  -->
<svg version="1.1" id="Layer_1" xmlns="http://www.w3.org/2000/svg" xmlns:xlink="http://www.w3.org/1999/xlink" x="0px" y="0px"
	 viewBox="0 0 386.7 59.8" style="enable-background:new 0 0 386.7 59.8;" xml:space="preserve">
<style type="text/css">
	.st0{fill:#FFFFFF;}
</style>
<g>
	<path class="st0" d="M0,7.1v50.3c0,0.6,0.6,1.2,1.2,1.2h15c0.8,0,1.3-0.6,1.3-1.2V19.6C11.2,17,5.3,12.9,0,7.1z"/>
	<path class="st0" d="M92.7,0.3c-9.2,3.7-17.6,9.3-26.4,14.1l-7.1,19.7l-5.1-14.1c-8.9,3.2-18.8,4.2-28.4,2.1v35.2
		c0,0.6,0.5,1.2,1.2,1.2h15.7c0.7,0,1.3-0.6,1.3-1.2V32.4l8.6,24.9c0.3,0.7,1.4,1.3,2.1,1.3h9.3c0.8,0,1.9-0.6,2.1-1.3l8.6-24.9
		v24.9c0,0.6,0.6,1.2,1.3,1.2h15.7c0.7,0,1.2-0.6,1.2-1.2V1.3V0.3z"/>
	<path class="st0" d="M122.1,0h-20c-0.6,0-1.2,0.6-1.2,1.3v56.1c0,0.6,0.6,1.2,1.2,1.2h15.2c0.8,0,1.4-0.6,1.4-1.2v-17h3.5
		c14.9,0,23.8-8.1,23.8-20.2C145.9,8.1,137,0,122.1,0z M122.9,25.2h-4.4v-10h4.4c3,0,5,2,5,5C127.9,23.2,125.9,25.2,122.9,25.2z"/>
	<path class="st0" d="M187,21.1c-2.3-0.4-4.4-1.1-6.5-1.8v19.2c0,3.8-2.2,6.1-5.9,6.1c-3.7,0-5.9-2.3-5.9-6.2V13.7
		c-5.8-3.3-11.5-7-17.5-10v33.1c0.2,15,8.2,22.9,23.4,22.9c15.3,0,23.4-7.9,23.4-22.9V21.6C194.3,21.9,190.6,21.8,187,21.1z"/>
	<path class="st0" d="M239,43.3h-15.8V15.5c-1.8,0.5-3.7,1.1-5.5,1.7c-3.9,1.2-7.9,2.4-12,3.3v36.9c0,0.6,0.6,1.2,1.3,1.2h30.6
		c0.7,0,1.3-0.6,1.4-1.2l1.2-12.9C240.1,43.8,239.6,43.3,239,43.3z"/>
	<path class="st0" d="M262.4,17.7c0-1.9,1.7-3.1,4.3-3.1c3,0.3,7.8,2.1,11.9,4.4c0.7,0.4,1.3,0.2,1.5-0.7l5.4-12
		c0.2-0.3,0.1-0.9-0.4-1.3C273.4,6,261.7,7.3,250,9.4c-1.4,0.2-2.8,0.5-4.2,0.8c-1,2.3-1.5,4.8-1.5,7.5c0,18.5,23.8,18.2,23.8,23.2
		c0,1.9-1.8,3.2-4.5,3.2c-3.2-0.3-7.9-1.9-11.8-4.1c-0.7-0.4-1.3-0.2-1.5,0.7l-5.4,12c-0.3,0.4,0,1,0.7,1.5
		c4.2,3.4,11.7,5.6,18.8,5.6c13.1,0,21.8-7.6,21.8-18.8C286.4,22.3,262.4,22.6,262.4,17.7z"/>
	<path class="st0" d="M333.9,43.3h-23.1V36h16.4c0.8,0,1.4-0.6,1.5-1.1l1.2-11.9c0.1-0.5-0.3-1.1-1.1-1.1h-18v-6.7h22.1
		c0.8,0,1.4-0.5,1.4-1.3V3c-4.3,0.1-8.7,0.2-13,0.3c-9.4,0.3-18.8,0.7-28.2,1.3v52.7c0.2,0.6,0.8,1.3,1.4,1.3h39.4
		c0.7,0,1.3-0.6,1.3-1.2v-13C335.1,43.8,334.6,43.3,333.9,43.3z"/>
	<path class="st0" d="M339,2.9v11.2c0,0.7,0.6,1.2,1.2,1.2h14.1v42.1c0,0.6,0.6,1.2,1.3,1.2h15c0.7,0,1.2-0.6,1.2-1.2V15.3h12.6
		c0.6,0,1.3-0.5,1.4-1.2l1-10C370.8,3.1,354.9,2.8,339,2.9z"/>
</g>
</svg>
